<svg width="64" height="64" viewBox="0 0 64 64" fill="none" xmlns="http://www.w3.org/2000/svg">
<rect width="64" height="64" fill="#0E0E0E"/>
<g clip-path="url(#clip0_413_97)">
<path d="M41.4366 18.6984L34.209 11.4708C33.1308 10.3926 31.3828 10.3926 30.3047 11.4708L23.0771 18.6984C22.9039 18.8716 22.9039 19.1524 23.0771 19.3256L25.7975 22.0461C26.0218 22.2704 26.401 22.1932 26.5218 21.8999C26.6317 21.6329 26.7969 21.3834 27.0173 21.1688C27.8636 20.3447 29.2263 20.349 30.0677 21.1782C30.9305 22.0286 30.9344 23.4174 30.0792 24.2727C29.8695 24.4824 29.6275 24.6405 29.3695 24.7469C29.0761 24.8678 28.9964 25.2452 29.2208 25.4696L31.943 28.1918C32.1162 28.3649 32.397 28.3649 32.5702 28.1918L35.2037 25.5582C35.4076 25.3544 35.3683 25.0108 35.1205 24.8636C34.9603 24.7684 34.8096 24.651 34.6731 24.5113C33.8463 23.6654 33.8492 22.3004 34.6795 21.4579C35.53 20.5951 36.9188 20.5912 37.774 21.4464C37.9045 21.5769 38.0149 21.7197 38.1054 21.8713C38.2542 22.1205 38.5962 22.1657 38.8015 21.9604L41.4362 19.3257C41.6097 19.1524 41.6097 18.8716 41.4366 18.6984Z" fill="#326DEF"/>
<path d="M22.8202 43.8202L30.0479 51.0479C31.126 52.126 32.874 52.126 33.9521 51.0479L41.1798 43.8202C41.3529 43.6471 41.3529 43.3662 41.1798 43.193L38.4593 40.4726C38.235 40.2483 37.8558 40.3255 37.735 40.6187C37.6251 40.8857 37.4599 41.1353 37.2395 41.3499C36.3932 42.1739 35.0305 42.1697 34.1891 41.3405C33.3263 40.49 33.3224 39.1012 34.1777 38.246C34.3873 38.0363 34.6293 37.8782 34.8873 37.7717C35.1807 37.6508 35.2604 37.2735 35.036 37.0491L32.3138 34.3269C32.1407 34.1537 31.8598 34.1537 31.6866 34.3269L29.053 36.9605C28.8491 37.1644 28.8884 37.5079 29.1362 37.6552C29.2964 37.7504 29.4471 37.8677 29.5836 38.0075C30.4104 38.8533 30.4075 40.2183 29.5772 41.0608C28.7267 41.9237 27.3379 41.9276 26.4827 41.0723C26.3522 40.9419 26.2418 40.799 26.1513 40.6474C26.0025 40.3983 25.6605 40.353 25.4552 40.5583L22.8204 43.1931C22.6471 43.3662 22.6471 43.6471 22.8202 43.8202Z" fill="#326DEF"/>
<path d="M27.1855 24.0604C26.3442 23.2313 24.9814 23.227 24.1351 24.051C23.9144 24.266 23.7489 24.516 23.639 24.7834C23.5187 25.0762 23.14 25.1532 22.9162 24.9293L20.1942 22.2074C20.0214 22.0346 19.7411 22.0344 19.5681 22.2074L12.3399 29.4356C11.2618 30.5137 11.2618 32.2617 12.3399 33.3398L19.5681 40.568C19.741 40.7409 20.0213 40.741 20.1942 40.568L22.8283 37.9339C23.0321 37.7301 23.3757 37.7694 23.5229 38.0172C23.6181 38.1774 23.7355 38.328 23.8752 38.4646C24.7211 39.2913 26.0862 39.2884 26.9286 38.4581C27.7915 37.6077 27.7954 36.2189 26.9401 35.3636C26.8093 35.2328 26.6661 35.1223 26.5143 35.0315C26.2655 34.8831 26.2204 34.5418 26.4254 34.3368L29.0616 31.7006C29.2344 31.5278 29.2345 31.2475 29.0616 31.0746L26.3387 28.3517C26.1143 28.1273 26.194 27.75 26.4874 27.629C26.7456 27.5227 26.9873 27.3646 27.1971 27.1548C28.0521 26.2998 28.0483 24.9109 27.1855 24.0604Z" fill="#67A6FF"/>
<path d="M44.0628 21.9505L41.4287 24.5846C41.2248 24.7885 40.8813 24.7492 40.7342 24.5013C40.639 24.3411 40.5216 24.1904 40.3818 24.0539C39.536 23.2271 38.171 23.23 37.3285 24.0603C36.4655 24.9106 36.4617 26.2995 37.317 27.1548C37.4478 27.2856 37.591 27.3962 37.7428 27.4869C37.9916 27.6354 38.0366 27.9766 37.8317 28.1816L35.1955 30.8178C35.0227 30.9906 35.0225 31.2709 35.1955 31.4439L37.9174 34.1658C38.1413 34.3896 38.0643 34.7684 37.7715 34.8887C37.5041 34.9986 37.2541 35.1641 37.0391 35.3848C36.2151 36.2311 36.2193 37.5938 37.0485 38.4352C37.899 39.298 39.2877 39.3019 40.143 38.4466C40.3527 38.237 40.5108 37.995 40.6173 37.737C40.7382 37.4436 41.1155 37.3639 41.3399 37.5883L44.0628 40.3112C44.2356 40.484 44.5159 40.4841 44.6888 40.3112L51.917 33.083C52.9952 32.0048 52.9952 30.2568 51.917 29.1787L44.6888 21.9505C44.5159 21.7776 44.2357 21.7776 44.0628 21.9505Z" fill="#67A6FF"/>
</g>
<defs>
<clipPath id="clip0_413_97">
<rect width="30.9276" height="30.5643" fill="white" transform="matrix(0.707107 -0.707107 -0.707107 -0.707107 32 53)"/>
</clipPath>
</defs>
</svg>
